<svg xmlns="http://www.w3.org/2000/svg" viewBox="0 0 48 48">
  <defs>
    <linearGradient id="g" x1="0" y1="0" x2="1" y2="1">
      <stop offset="0%" stop-color="#f43f5e"/>
      <stop offset="50%" stop-color="#8b5cf6"/>
      <stop offset="100%" stop-color="#06b6d4"/>
    </linearGradient>
  </defs>
  <rect width="48" height="48" rx="10" fill="url(#g)"/>
  <path d="M24 10c-5.5 0-10 4.5-10 10s4.5 10 10 10c.926 0 1.648-.746 1.648-1.688 0-.437-.18-.835-.437-1.125-.29-.289-.438-.652-.438-1.125a1.64 1.64 0 0 1 1.668-1.668h1.996c3.051 0 5.555-2.503 5.555-5.554C33.965 14.012 29.461 10 24 10z"
        fill="none" stroke="white" stroke-width="1.5" stroke-linecap="round" stroke-linejoin="round"/>
  <circle cx="20.5" cy="15.5" r="1" fill="white"/>
  <circle cx="25.5" cy="14.5" r="1" fill="white"/>
  <circle cx="29.5" cy="18.5" r="1" fill="white"/>
  <circle cx="18.5" cy="20.5" r="1" fill="white"/>
</svg>
